#!OML:ASF H:\Swim 2\Project 1\Capture day 1\Session 1\male.ASF
:FULLY-SPECIFIED
:DEGREES
1372
root 8.21183 9.86706 11.8938 93.5746 -4.90669 -4.3877
lowerback -1.02075 -3.52729 -6.88204
upperback -4.79426 -4.95033 -1.23078
thorax -3.944 -2.27239 2.66146
lowerneck -21.2233 3.10496 1.11014
upperneck 25.005 6.81224 -9.89166
head 12.2308 1.81307 -2.78596
rclavicle -2.06736e-014 -2.34566e-014
rhumerus -48.4182 16.956 -63.8958
rradius 71.5716
rwrist -8.85407
rhand -45.4974 13.6431
rfingers 7.12502
rthumb -18.2622 -15.5196
lclavicle -2.06736e-014 -2.34566e-014
lhumerus 84.014 25.2375 30.6926
lradius 28.5628
lwrist 23.0066
lhand -39.2275 -3.78035
lfingers 7.12502
lthumb -12.2231 25.8425
rfemur -34.6186 10.1679 18.3203
rtibia 20.2459
rfoot 39.5938 5.36144
rtoes 13.1821
lfemur -21.9516 -7.3858 -19.1348
ltibia 38.8489
lfoot 10.5378 5.80826
ltoes 27.0008
1373
root 8.21451 9.86968 11.8831 93.3012 -4.90781 -4.21049
lowerback -0.926686 -3.71128 -6.83478
upperback -4.68156 -5.20403 -1.36885
thorax -3.87151 -2.40845 2.49704
lowerneck -21.3474 3.14045 0.96522
upperneck 25.253 6.86858 -9.65244
head 12.3405 1.84025 -2.66642
rclavicle -4.92986e-014 -1.33186e-014
rhumerus -49.5741 17.9242 -65.1795
rradius 69.2322
rwrist -6.70759
rhand -45.5882 15.2664
rfingers 7.12502
rthumb -18.3496 -13.8881
lclavicle -4.92986e-014 -1.33186e-014
lhumerus 83.5295 25.1088 29.4924
lradius 29.0318
lwrist 23.5009
lhand -39.2256 -3.42409
lfingers 7.12502
lthumb -12.2211 26.1989
rfemur -34.3999 9.86598 18.5292
rtibia 20.2112
rfoot 39.1589 5.24385
rtoes 12.6359
lfemur -21.7935 -6.97723 -19.4703
ltibia 39.9932
lfoot 11.0587 5.47126
ltoes 27.8537
1374
root 8.21491 9.87099 11.87 93.0703 -4.85825 -4.04199
lowerback -0.87926 -3.88903 -6.75402
upperback -4.59077 -5.44598 -1.50443
thorax -3.80101 -2.53926 2.3145
lowerneck -21.4829 3.16913 0.827977
upperneck 25.4859 6.90771 -9.40053
head 12.445 1.86266 -2.54526
rclavicle -1.90833e-014 1.98785e-014
rhumerus -50.7157 18.9057 -66.5173
rradius 66.7876
rwrist -4.3805
rhand -45.5201 17.102
rfingers 7.12502
rthumb -18.284 -12.0587
lclavicle -1.90833e-014 1.98785e-014
lhumerus 83.0477 24.964 28.2749
lradius 29.5018
lwrist 23.8955
lhand -39.146 -3.16859
lfingers 7.12502
lthumb -12.1444 26.4589
rfemur -34.1526 9.49335 18.8863
rtibia 20.3928
rfoot 38.7786 5.18219
rtoes 12.6269
lfemur -21.812 -6.50735 -19.7259
ltibia 41.0747
lfoot 11.514 5.2111
ltoes 28.6819
1375
root 8.21325 9.87094 11.8549 92.8818 -4.74881 -3.88334
lowerback -0.87319 -4.06522 -6.62496
upperback -4.52076 -5.68273 -1.63228
thorax -3.73477 -2.66854 2.11138
lowerneck -21.6137 3.19839 0.700898
upperneck 25.6614 6.93619 -9.1422
head 12.5252 1.88473 -2.42327
rclavicle -2.8625e-014 -1.39149e-014
rhumerus -51.8123 19.8806 -67.8928
rradius 64.2452
rwrist -1.94004
rhand -45.268 18.9948
rfingers 7.12502
rthumb -18.0415 -10.1885
lclavicle -2.8625e-014 -1.39149e-014
lhumerus 82.5525 24.818 27.0291
lradius 29.9685
lwrist 24.1559
lhand -39.0059 -3.03663
lfingers 7.12502
lthumb -12.0093 26.5988
rfemur -33.8666 9.07771 19.3775
rtibia 20.7523
rfoot 38.5473 5.18681
rtoes 13.05
lfemur -21.9944 -5.98878 -19.89
ltibia 42.0389
lfoot 11.8735 5.00664
ltoes 29.517
1376
root 8.20981 9.86968 11.8379 92.7352 -4.58306 -3.73317
lowerback -0.900887 -4.24047 -6.45058
upperback -4.47104 -5.91595 -1.7493
thorax -3.67629 -2.79688 1.89297
lowerneck -21.7931 3.24445 0.568004
upperneck 25.8526 6.98704 -8.86388
head 12.6218 1.91671 -2.28835
rclavicle -3.49861e-014 4.37326e-015
rhumerus -52.8383 20.8209 -69.2807
rradius 61.6055
rwrist 0.535556
rhand -44.8423 20.7715
rfingers 7.12502
rthumb -17.6319 -8.44904
lclavicle -3.49861e-014 4.37326e-015
lhumerus 82.0424 24.6773 25.7648
lradius 30.4326
lwrist 24.2755
lhand -38.851 -3.0588
lfingers 7.12502
lthumb -11.86 26.5853
rfemur -33.5357 8.6414 19.9721
rtibia 21.2567
rfoot 38.4881 5.25268
rtoes 13.5932
lfemur -22.333 -5.44452 -19.967
ltibia 42.8485
lfoot 12.0859 4.87265
ltoes 30.2753
1377
root 8.20473 9.86744 11.8193 92.621 -4.36602 -3.58315
lowerback -0.948418 -4.41699 -6.23187
upperback -4.43933 -6.15004 -1.85718
thorax -3.63123 -2.92637 1.6591
lowerneck -21.9479 3.29602 0.440377
upperneck 25.9524 7.03482 -8.58798
head 12.6767 1.95198 -2.15337
rclavicle -1.27222e-014 1.0138e-014
rhumerus -53.7804 21.7109 -70.6682
rradius 58.8659
rwrist 2.91973
rhand -44.2904 22.3214
rfingers 7.12502
rthumb -17.1008 -6.94604
lclavicle -1.27222e-014 1.0138e-014
lhumerus 81.5204 24.5457 24.4899
lradius 30.9004
lwrist 24.2497
lhand -38.6843 -3.17269
lfingers 7.12502
lthumb -11.6992 26.4806
rfemur -33.1524 8.21187 20.6362
rtibia 21.8859
rfoot 38.5996 5.3816
rtoes 14.3588
lfemur -22.812 -4.89997 -19.9651
ltibia 43.4788
lfoot 12.1232 4.83518
ltoes 30.8808
1378
root 8.1983 9.86448 11.7984 92.5349 -4.11936 -3.4279
lowerback -1.00399 -4.59307 -5.99014
upperback -4.4245 -6.38422 -1.96011
thorax -3.60394 -3.05588 1.41813
lowerneck -22.1421 3.36383 0.295247
upperneck 26.0684 7.10665 -8.28666
head 12.7453 1.99775 -2.00108
rclavicle 6.04305e-014 2.22639e-014
rhumerus -54.6428 22.5273 -72.0231
rradius 56.0587
rwrist 5.07525
rhand -43.5097 23.451
rfingers 7.12502
rthumb -16.3491 -5.87986
lclavicle 6.04305e-014 2.22639e-014
lhumerus 81.0033 24.4231 23.2365
lradius 31.3736
lwrist 24.0813
lhand -38.5396 -3.36367
lfingers 7.12502
lthumb -11.5597 26.2975
rfemur -32.7207 7.82088 21.3179
rtibia 22.6246
rfoot 38.8509 5.55099
rtoes 15.0556
lfemur -23.4235 -4.38666 -19.9094
ltibia 43.9214
lfoot 12.004 4.91271
ltoes 31.4258
1379
root 8.19051 9.861 11.7764 92.4784 -3.85856 -3.26286
lowerback -1.06875 -4.76896 -5.73933
upperback -4.42607 -6.61903 -2.06065
thorax -3.59234 -3.18544 1.17488
lowerneck -22.3437 3.44117 0.15641
upperneck 26.1545 7.19469 -8.0097
head 12.8055 2.04917 -1.85528
rclavicle 4.77083e-014 -8.34896e-015
rhumerus -55.4212 23.2411 -73.3104
rradius 53.2111
rwrist 6.90793
rhand -42.6398 24.0973
rfingers 7.12502
rthumb -15.5115 -5.30055
lclavicle 4.77083e-014 -8.34896e-015
lhumerus 80.4903 24.3169 22.0044
lradius 31.8628
lwrist 23.8152
lhand -38.4239 -3.60518
lfingers 7.12502
lthumb -11.4481 26.0623
rfemur -32.2596 7.48353 21.9842
rtibia 23.4661
rfoot 39.1703 5.77829
rtoes 15.6282
lfemur -24.1589 -3.93477 -19.8166
ltibia 44.1721
lfoot 11.7547 5.14822
ltoes 31.8823
1380
root 8.18159 9.85714 11.7534 92.4482 -3.59069 -3.0856
lowerback -1.13823 -4.94512 -5.48531
upperback -4.44556 -6.85579 -2.15913
thorax -3.6 -3.31553 0.932795
lowerneck -22.4635 3.50727 0.0294796
upperneck 26.1042 7.2601 -7.77328
head 12.7948 2.09446 -1.72924
rclavicle 1.01778e-013 3.10104e-014
rhumerus -56.1306 23.8416 -74.5001
rradius 50.3602
rwrist 8.30632
rhand -41.6184 24.2794
rfingers 7.12502
rthumb -14.5275 -5.19197
lclavicle 1.01778e-013 3.10104e-014
lhumerus 79.9583 24.2305 20.7615
lradius 32.3782
lwrist 23.5
lhand -38.3454 -3.87181
lfingers 7.12502
lthumb -11.3724 25.7998
rfemur -31.7737 7.1849 22.6264
rtibia 24.4024
rfoot 39.5 6.05678
rtoes 16.3149
lfemur -25.0065 -3.56957 -19.6926
ltibia 44.2384
lfoot 11.4099 5.56949
ltoes 32.3093
1381
root 8.17191 9.85312 11.7301 92.4436 -3.33169 -2.89881
lowerback -1.21129 -5.1207 -5.24259
upperback -4.4818 -7.09354 -2.2562
thorax -3.62484 -3.44538 0.699102
lowerneck -22.4985 3.55626 -0.0907833
upperneck 25.9234 7.29794 -7.57979
head 12.7151 2.13052 -1.62479
rclavicle -4.13472e-014 -1.11319e-014
rhumerus -56.7454 24.2815 -75.5108
rradius 47.5308
rwrist 9.29314
rhand -40.475 24.064
rfingers 7.12502
rthumb -13.4256 -5.48339
lclavicle -4.13472e-014 -1.11319e-014
lhumerus 79.4182 24.1673 19.5357
lradius 32.9082
lwrist 23.1596
lhand -38.3136 -4.17999
lfingers 7.12502
lthumb -11.3417 25.4933
rfemur -31.2714 6.91444 23.2267
rtibia 25.4176
rfoot 39.7968 6.38733
rtoes 17.0395
lfemur -25.9527 -3.31757 -19.5506
ltibia 44.1323
lfoot 11.0315 6.15453
ltoes 32.8297
